<?xml version="1.0" encoding="UTF-8"?>
<svg id="Layer_1" xmlns="http://www.w3.org/2000/svg" xmlns:xlink="http://www.w3.org/1999/xlink" version="1.1" viewBox="0 0 1304.62 350">
  <!-- Generator: Adobe Illustrator 30.6.0, SVG Export Plug-In . SVG Version: 2.1.4 Build 109)  -->
  <defs>
    <style>
      .st0, .st1, .st2, .st3, .st4 {
        fill: none;
      }

      .st5 {
        fill: #79b4c9;
      }

      .st6 {
        fill: #b97f5b;
      }

      .st7 {
        fill: #2c5b7a;
      }

      .st8 {
        fill: #c9a24a;
      }

      .st9, .st10 {
        fill: #d4a24c;
      }

      .st11 {
        font-family: Futura-Bold, Futura;
        font-size: 72px;
        font-weight: 700;
        letter-spacing: .1em;
      }

      .st11, .st12, .st10, .st3, .st4 {
        isolation: isolate;
      }

      .st11, .st13 {
        fill: #132238;
      }

      .st14 {
        fill: #8fae8c;
      }

      .st1 {
        stroke: url(#radial-gradient);
        stroke-width: 14px;
      }

      .st15 {
        fill: #3a7ca5;
      }

      .st16 {
        fill: #1f3a5f;
      }

      .st2 {
        stroke: #d4a24c;
        stroke-width: 2px;
      }

      .st17 {
        fill: #e9c77e;
      }

      .st10 {
        font-family: Georgia-Italic, Georgia;
        font-size: 55px;
        font-style: italic;
        letter-spacing: .02em;
      }

      .st18 {
        fill: #5b9aa6;
      }

      .st3 {
        opacity: .22;
      }

      .st3, .st4 {
        stroke: #f6f1e4;
      }

      .st4 {
        opacity: .28;
      }

      .st19 {
        clip-path: url(#clippath);
      }
    </style>
    <clipPath id="clippath">
      <circle class="st0" cx="175" cy="175" r="158"/>
    </clipPath>
    <radialGradient id="radial-gradient" cx="-484.19" cy="-32.54" fx="-484.19" fy="-32.54" r=".5" gradientTransform="translate(162862 11109) scale(336)" gradientUnits="userSpaceOnUse">
      <stop offset=".8" stop-color="#d4a24c" stop-opacity="0"/>
      <stop offset="1" stop-color="#d4a24c" stop-opacity=".3"/>
    </radialGradient>
  </defs>
  <g class="st19">
    <g>
      <rect class="st14" x="169" y="13" width="10.8" height="10.8" rx="1.2" ry="1.2"/>
      <rect class="st16" x="109" y="25" width="10.8" height="10.8" rx="1.2" ry="1.2"/>
      <rect class="st13" x="121" y="25" width="10.8" height="10.8" rx="1.2" ry="1.2"/>
      <rect class="st15" x="133" y="25" width="10.8" height="10.8" rx="1.2" ry="1.2"/>
      <rect class="st16" x="145" y="25" width="10.8" height="10.8" rx="1.2" ry="1.2"/>
      <rect class="st18" x="157" y="25" width="10.8" height="10.8" rx="1.2" ry="1.2"/>
      <rect class="st7" x="169" y="25" width="10.8" height="10.8" rx="1.2" ry="1.2"/>
      <rect class="st13" x="181" y="25" width="10.8" height="10.8" rx="1.2" ry="1.2"/>
      <rect class="st16" x="193" y="25" width="10.8" height="10.8" rx="1.2" ry="1.2"/>
      <rect class="st13" x="205" y="25" width="10.8" height="10.8" rx="1.2" ry="1.2"/>
      <rect class="st13" x="217" y="25" width="10.8" height="10.8" rx="1.2" ry="1.2"/>
      <rect class="st18" x="229" y="25" width="10.8" height="10.8" rx="1.2" ry="1.2"/>
      <rect class="st18" x="97" y="37" width="10.8" height="10.8" rx="1.2" ry="1.2"/>
      <rect class="st18" x="109" y="37" width="10.8" height="10.8" rx="1.2" ry="1.2"/>
      <rect class="st7" x="121" y="37" width="10.8" height="10.8" rx="1.2" ry="1.2"/>
      <rect class="st15" x="133" y="37" width="10.8" height="10.8" rx="1.2" ry="1.2"/>
      <rect class="st15" x="145" y="37" width="10.8" height="10.8" rx="1.2" ry="1.2"/>
      <rect class="st16" x="157" y="37" width="10.8" height="10.8" rx="1.2" ry="1.2"/>
      <rect class="st13" x="169" y="37" width="10.8" height="10.8" rx="1.2" ry="1.2"/>
      <rect class="st13" x="181" y="37" width="10.8" height="10.8" rx="1.2" ry="1.2"/>
      <rect class="st18" x="193" y="37" width="10.8" height="10.8" rx="1.2" ry="1.2"/>
      <rect class="st15" x="205" y="37" width="10.8" height="10.8" rx="1.2" ry="1.2"/>
      <rect class="st13" x="217" y="37" width="10.8" height="10.8" rx="1.2" ry="1.2"/>
      <rect class="st16" x="229" y="37" width="10.8" height="10.8" rx="1.2" ry="1.2"/>
      <rect class="st16" x="241" y="37" width="10.8" height="10.8" rx="1.2" ry="1.2"/>
      <rect class="st5" x="73" y="49" width="10.8" height="10.8" rx="1.2" ry="1.2"/>
      <rect class="st13" x="85" y="49" width="10.8" height="10.8" rx="1.2" ry="1.2"/>
      <rect class="st13" x="97" y="49" width="10.8" height="10.8" rx="1.2" ry="1.2"/>
      <rect class="st14" x="109" y="49" width="10.8" height="10.8" rx="1.2" ry="1.2"/>
      <rect class="st16" x="121" y="49" width="10.8" height="10.8" rx="1.2" ry="1.2"/>
      <rect class="st5" x="133" y="49" width="10.8" height="10.8" rx="1.2" ry="1.2"/>
      <rect class="st13" x="145" y="49" width="10.8" height="10.8" rx="1.2" ry="1.2"/>
      <rect class="st18" x="157" y="49" width="10.8" height="10.8" rx="1.2" ry="1.2"/>
      <rect class="st13" x="169" y="49" width="10.8" height="10.8" rx="1.2" ry="1.2"/>
      <rect class="st16" x="181" y="49" width="10.8" height="10.8" rx="1.2" ry="1.2"/>
      <rect class="st7" x="193" y="49" width="10.8" height="10.8" rx="1.2" ry="1.2"/>
      <rect class="st18" x="205" y="49" width="10.8" height="10.8" rx="1.2" ry="1.2"/>
      <rect class="st15" x="217" y="49" width="10.8" height="10.8" rx="1.2" ry="1.2"/>
      <rect class="st13" x="229" y="49" width="10.8" height="10.8" rx="1.2" ry="1.2"/>
      <rect class="st13" x="241" y="49" width="10.8" height="10.8" rx="1.2" ry="1.2"/>
      <rect class="st15" x="253" y="49" width="10.8" height="10.8" rx="1.2" ry="1.2"/>
      <rect class="st7" x="265" y="49" width="10.8" height="10.8" rx="1.2" ry="1.2"/>
      <rect class="st13" x="61" y="61" width="10.8" height="10.8" rx="1.2" ry="1.2"/>
      <rect class="st8" x="73" y="61" width="10.8" height="10.8" rx="1.2" ry="1.2"/>
      <rect class="st5" x="85" y="61" width="10.8" height="10.8" rx="1.2" ry="1.2"/>
      <rect class="st15" x="97" y="61" width="10.8" height="10.8" rx="1.2" ry="1.2"/>
      <rect class="st15" x="109" y="61" width="10.8" height="10.8" rx="1.2" ry="1.2"/>
      <rect class="st13" x="121" y="61" width="10.8" height="10.8" rx="1.2" ry="1.2"/>
      <rect class="st13" x="133" y="61" width="10.8" height="10.8" rx="1.2" ry="1.2"/>
      <rect class="st16" x="145" y="61" width="10.8" height="10.8" rx="1.2" ry="1.2"/>
      <rect class="st16" x="157" y="61" width="10.8" height="10.8" rx="1.2" ry="1.2"/>
      <rect class="st18" x="169" y="61" width="10.8" height="10.8" rx="1.2" ry="1.2"/>
      <rect class="st13" x="181" y="61" width="10.8" height="10.8" rx="1.2" ry="1.2"/>
      <rect class="st13" x="193" y="61" width="10.8" height="10.8" rx="1.2" ry="1.2"/>
      <rect class="st16" x="205" y="61" width="10.8" height="10.8" rx="1.2" ry="1.2"/>
      <rect class="st18" x="217" y="61" width="10.8" height="10.8" rx="1.2" ry="1.2"/>
      <rect class="st15" x="229" y="61" width="10.8" height="10.8" rx="1.2" ry="1.2"/>
      <rect class="st13" x="241" y="61" width="10.8" height="10.8" rx="1.2" ry="1.2"/>
      <rect class="st6" x="253" y="61" width="10.8" height="10.8" rx="1.2" ry="1.2"/>
      <rect class="st8" x="265" y="61" width="10.8" height="10.8" rx="1.2" ry="1.2"/>
      <rect class="st5" x="277" y="61" width="10.8" height="10.8" rx="1.2" ry="1.2"/>
      <rect class="st18" x="49" y="73" width="10.8" height="10.8" rx="1.2" ry="1.2"/>
      <rect class="st13" x="61" y="73" width="10.8" height="10.8" rx="1.2" ry="1.2"/>
      <rect class="st5" x="73" y="73" width="10.8" height="10.8" rx="1.2" ry="1.2"/>
      <rect class="st13" x="85" y="73" width="10.8" height="10.8" rx="1.2" ry="1.2"/>
      <rect class="st13" x="97" y="73" width="10.8" height="10.8" rx="1.2" ry="1.2"/>
      <rect class="st13" x="109" y="73" width="10.8" height="10.8" rx="1.2" ry="1.2"/>
      <rect class="st13" x="121" y="73" width="10.8" height="10.8" rx="1.2" ry="1.2"/>
      <rect class="st16" x="133" y="73" width="10.8" height="10.8" rx="1.2" ry="1.2"/>
      <rect class="st7" x="145" y="73" width="10.8" height="10.8" rx="1.2" ry="1.2"/>
      <rect class="st16" x="157" y="73" width="10.8" height="10.8" rx="1.2" ry="1.2"/>
      <rect class="st7" x="169" y="73" width="10.8" height="10.8" rx="1.2" ry="1.2"/>
      <rect class="st15" x="181" y="73" width="10.8" height="10.8" rx="1.2" ry="1.2"/>
      <rect class="st14" x="193" y="73" width="10.8" height="10.8" rx="1.2" ry="1.2"/>
      <rect class="st7" x="205" y="73" width="10.8" height="10.8" rx="1.2" ry="1.2"/>
      <rect class="st9" x="217" y="73" width="10.8" height="10.8" rx="1.2" ry="1.2"/>
      <rect class="st14" x="229" y="73" width="10.8" height="10.8" rx="1.2" ry="1.2"/>
      <rect class="st13" x="241" y="73" width="10.8" height="10.8" rx="1.2" ry="1.2"/>
      <rect class="st17" x="253" y="73" width="10.8" height="10.8" rx="1.2" ry="1.2"/>
      <rect class="st6" x="265" y="73" width="10.8" height="10.8" rx="1.2" ry="1.2"/>
      <rect class="st18" x="277" y="73" width="10.8" height="10.8" rx="1.2" ry="1.2"/>
      <rect class="st6" x="289" y="73" width="10.8" height="10.8" rx="1.2" ry="1.2"/>
      <rect class="st15" x="49" y="85" width="10.8" height="10.8" rx="1.2" ry="1.2"/>
      <rect class="st7" x="61" y="85" width="10.8" height="10.8" rx="1.2" ry="1.2"/>
      <rect class="st13" x="73" y="85" width="10.8" height="10.8" rx="1.2" ry="1.2"/>
      <rect class="st7" x="85" y="85" width="10.8" height="10.8" rx="1.2" ry="1.2"/>
      <rect class="st15" x="97" y="85" width="10.8" height="10.8" rx="1.2" ry="1.2"/>
      <rect class="st13" x="109" y="85" width="10.8" height="10.8" rx="1.2" ry="1.2"/>
      <rect class="st13" x="121" y="85" width="10.8" height="10.8" rx="1.2" ry="1.2"/>
      <rect class="st13" x="133" y="85" width="10.8" height="10.8" rx="1.2" ry="1.2"/>
      <rect class="st16" x="145" y="85" width="10.8" height="10.8" rx="1.2" ry="1.2"/>
      <rect class="st18" x="157" y="85" width="10.8" height="10.8" rx="1.2" ry="1.2"/>
      <rect class="st13" x="169" y="85" width="10.8" height="10.8" rx="1.2" ry="1.2"/>
      <rect class="st15" x="181" y="85" width="10.8" height="10.8" rx="1.2" ry="1.2"/>
      <rect class="st14" x="193" y="85" width="10.8" height="10.8" rx="1.2" ry="1.2"/>
      <rect class="st13" x="205" y="85" width="10.8" height="10.8" rx="1.2" ry="1.2"/>
      <rect class="st5" x="217" y="85" width="10.8" height="10.8" rx="1.2" ry="1.2"/>
      <rect class="st18" x="229" y="85" width="10.8" height="10.8" rx="1.2" ry="1.2"/>
      <rect class="st14" x="241" y="85" width="10.8" height="10.8" rx="1.2" ry="1.2"/>
      <rect class="st14" x="253" y="85" width="10.8" height="10.8" rx="1.2" ry="1.2"/>
      <rect class="st17" x="265" y="85" width="10.8" height="10.8" rx="1.2" ry="1.2"/>
      <rect class="st6" x="277" y="85" width="10.8" height="10.8" rx="1.2" ry="1.2"/>
      <rect class="st18" x="289" y="85" width="10.8" height="10.8" rx="1.2" ry="1.2"/>
      <rect class="st18" x="37" y="97" width="10.8" height="10.8" rx="1.2" ry="1.2"/>
      <rect class="st8" x="49" y="97" width="10.8" height="10.8" rx="1.2" ry="1.2"/>
      <rect class="st15" x="61" y="97" width="10.8" height="10.8" rx="1.2" ry="1.2"/>
      <rect class="st9" x="73" y="97" width="10.8" height="10.8" rx="1.2" ry="1.2"/>
      <rect class="st13" x="85" y="97" width="10.8" height="10.8" rx="1.2" ry="1.2"/>
      <rect class="st16" x="97" y="97" width="10.8" height="10.8" rx="1.2" ry="1.2"/>
      <rect class="st8" x="109" y="97" width="10.8" height="10.8" rx="1.2" ry="1.2"/>
      <rect class="st13" x="121" y="97" width="10.8" height="10.8" rx="1.2" ry="1.2"/>
      <rect class="st13" x="133" y="97" width="10.8" height="10.8" rx="1.2" ry="1.2"/>
      <rect class="st13" x="145" y="97" width="10.8" height="10.8" rx="1.2" ry="1.2"/>
      <rect class="st5" x="157" y="97" width="10.8" height="10.8" rx="1.2" ry="1.2"/>
      <rect class="st15" x="169" y="97" width="10.8" height="10.8" rx="1.2" ry="1.2"/>
      <rect class="st18" x="181" y="97" width="10.8" height="10.8" rx="1.2" ry="1.2"/>
      <rect class="st6" x="193" y="97" width="10.8" height="10.8" rx="1.2" ry="1.2"/>
      <rect class="st6" x="205" y="97" width="10.8" height="10.8" rx="1.2" ry="1.2"/>
      <rect class="st6" x="217" y="97" width="10.8" height="10.8" rx="1.2" ry="1.2"/>
      <rect class="st18" x="229" y="97" width="10.8" height="10.8" rx="1.2" ry="1.2"/>
      <rect class="st6" x="241" y="97" width="10.8" height="10.8" rx="1.2" ry="1.2"/>
      <rect class="st9" x="253" y="97" width="10.8" height="10.8" rx="1.2" ry="1.2"/>
      <rect class="st6" x="265" y="97" width="10.8" height="10.8" rx="1.2" ry="1.2"/>
      <rect class="st18" x="277" y="97" width="10.8" height="10.8" rx="1.2" ry="1.2"/>
      <rect class="st6" x="289" y="97" width="10.8" height="10.8" rx="1.2" ry="1.2"/>
      <rect class="st13" x="301" y="97" width="10.8" height="10.8" rx="1.2" ry="1.2"/>
      <rect class="st17" x="25" y="109" width="10.8" height="10.8" rx="1.2" ry="1.2"/>
      <rect class="st6" x="37" y="109" width="10.8" height="10.8" rx="1.2" ry="1.2"/>
      <rect class="st6" x="49" y="109" width="10.8" height="10.8" rx="1.2" ry="1.2"/>
      <rect class="st7" x="61" y="109" width="10.8" height="10.8" rx="1.2" ry="1.2"/>
      <rect class="st17" x="73" y="109" width="10.8" height="10.8" rx="1.2" ry="1.2"/>
      <rect class="st15" x="85" y="109" width="10.8" height="10.8" rx="1.2" ry="1.2"/>
      <rect class="st16" x="97" y="109" width="10.8" height="10.8" rx="1.2" ry="1.2"/>
      <rect class="st5" x="109" y="109" width="10.8" height="10.8" rx="1.2" ry="1.2"/>
      <rect class="st14" x="121" y="109" width="10.8" height="10.8" rx="1.2" ry="1.2"/>
      <rect class="st9" x="133" y="109" width="10.8" height="10.8" rx="1.2" ry="1.2"/>
      <rect class="st7" x="145" y="109" width="10.8" height="10.8" rx="1.2" ry="1.2"/>
      <rect class="st17" x="157" y="109" width="10.8" height="10.8" rx="1.2" ry="1.2"/>
      <rect class="st18" x="169" y="109" width="10.8" height="10.8" rx="1.2" ry="1.2"/>
      <rect class="st17" x="181" y="109" width="10.8" height="10.8" rx="1.2" ry="1.2"/>
      <rect class="st17" x="193" y="109" width="10.8" height="10.8" rx="1.2" ry="1.2"/>
      <rect class="st6" x="205" y="109" width="10.8" height="10.8" rx="1.2" ry="1.2"/>
      <rect class="st6" x="217" y="109" width="10.8" height="10.8" rx="1.2" ry="1.2"/>
      <rect class="st6" x="229" y="109" width="10.8" height="10.8" rx="1.2" ry="1.2"/>
      <rect class="st6" x="241" y="109" width="10.8" height="10.8" rx="1.2" ry="1.2"/>
      <rect class="st6" x="253" y="109" width="10.8" height="10.8" rx="1.2" ry="1.2"/>
      <rect class="st9" x="265" y="109" width="10.8" height="10.8" rx="1.2" ry="1.2"/>
      <rect class="st18" x="277" y="109" width="10.8" height="10.8" rx="1.2" ry="1.2"/>
      <rect class="st5" x="289" y="109" width="10.8" height="10.8" rx="1.2" ry="1.2"/>
      <rect class="st6" x="301" y="109" width="10.8" height="10.8" rx="1.2" ry="1.2"/>
      <rect class="st14" x="313" y="109" width="10.8" height="10.8" rx="1.2" ry="1.2"/>
      <rect class="st17" x="25" y="121" width="10.8" height="10.8" rx="1.2" ry="1.2"/>
      <rect class="st6" x="37" y="121" width="10.8" height="10.8" rx="1.2" ry="1.2"/>
      <rect class="st6" x="49" y="121" width="10.8" height="10.8" rx="1.2" ry="1.2"/>
      <rect class="st18" x="61" y="121" width="10.8" height="10.8" rx="1.2" ry="1.2"/>
      <rect class="st9" x="73" y="121" width="10.8" height="10.8" rx="1.2" ry="1.2"/>
      <rect class="st7" x="85" y="121" width="10.8" height="10.8" rx="1.2" ry="1.2"/>
      <rect class="st13" x="97" y="121" width="10.8" height="10.8" rx="1.2" ry="1.2"/>
      <rect class="st16" x="109" y="121" width="10.8" height="10.8" rx="1.2" ry="1.2"/>
      <rect class="st18" x="121" y="121" width="10.8" height="10.8" rx="1.2" ry="1.2"/>
      <rect class="st16" x="133" y="121" width="10.8" height="10.8" rx="1.2" ry="1.2"/>
      <rect class="st14" x="145" y="121" width="10.8" height="10.8" rx="1.2" ry="1.2"/>
      <rect class="st8" x="157" y="121" width="10.8" height="10.8" rx="1.2" ry="1.2"/>
      <rect class="st6" x="169" y="121" width="10.8" height="10.8" rx="1.2" ry="1.2"/>
      <rect class="st14" x="181" y="121" width="10.8" height="10.8" rx="1.2" ry="1.2"/>
      <rect class="st8" x="193" y="121" width="10.8" height="10.8" rx="1.2" ry="1.2"/>
      <rect class="st17" x="205" y="121" width="10.8" height="10.8" rx="1.2" ry="1.2"/>
      <rect class="st14" x="217" y="121" width="10.8" height="10.8" rx="1.2" ry="1.2"/>
      <rect class="st6" x="229" y="121" width="10.8" height="10.8" rx="1.2" ry="1.2"/>
      <rect class="st9" x="241" y="121" width="10.8" height="10.8" rx="1.2" ry="1.2"/>
      <rect class="st17" x="253" y="121" width="10.8" height="10.8" rx="1.2" ry="1.2"/>
      <rect class="st8" x="265" y="121" width="10.8" height="10.8" rx="1.2" ry="1.2"/>
      <rect class="st6" x="277" y="121" width="10.8" height="10.8" rx="1.2" ry="1.2"/>
      <rect class="st6" x="289" y="121" width="10.8" height="10.8" rx="1.2" ry="1.2"/>
      <rect class="st8" x="301" y="121" width="10.8" height="10.8" rx="1.2" ry="1.2"/>
      <rect class="st17" x="313" y="121" width="10.8" height="10.8" rx="1.2" ry="1.2"/>
      <rect class="st9" x="25" y="133" width="10.8" height="10.8" rx="1.2" ry="1.2"/>
      <rect class="st6" x="37" y="133" width="10.8" height="10.8" rx="1.2" ry="1.2"/>
      <rect class="st6" x="49" y="133" width="10.8" height="10.8" rx="1.2" ry="1.2"/>
      <rect class="st18" x="61" y="133" width="10.8" height="10.8" rx="1.2" ry="1.2"/>
      <rect class="st6" x="73" y="133" width="10.8" height="10.8" rx="1.2" ry="1.2"/>
      <rect class="st6" x="85" y="133" width="10.8" height="10.8" rx="1.2" ry="1.2"/>
      <rect class="st14" x="97" y="133" width="10.8" height="10.8" rx="1.2" ry="1.2"/>
      <rect class="st14" x="109" y="133" width="10.8" height="10.8" rx="1.2" ry="1.2"/>
      <rect class="st16" x="121" y="133" width="10.8" height="10.8" rx="1.2" ry="1.2"/>
      <rect class="st18" x="133" y="133" width="10.8" height="10.8" rx="1.2" ry="1.2"/>
      <rect class="st6" x="145" y="133" width="10.8" height="10.8" rx="1.2" ry="1.2"/>
      <rect class="st18" x="157" y="133" width="10.8" height="10.8" rx="1.2" ry="1.2"/>
      <rect class="st6" x="169" y="133" width="10.8" height="10.8" rx="1.2" ry="1.2"/>
      <rect class="st17" x="181" y="133" width="10.8" height="10.8" rx="1.2" ry="1.2"/>
      <rect class="st6" x="193" y="133" width="10.8" height="10.8" rx="1.2" ry="1.2"/>
      <rect class="st5" x="205" y="133" width="10.8" height="10.8" rx="1.2" ry="1.2"/>
      <rect class="st14" x="217" y="133" width="10.8" height="10.8" rx="1.2" ry="1.2"/>
      <rect class="st6" x="229" y="133" width="10.8" height="10.8" rx="1.2" ry="1.2"/>
      <rect class="st6" x="241" y="133" width="10.8" height="10.8" rx="1.2" ry="1.2"/>
      <rect class="st6" x="253" y="133" width="10.8" height="10.8" rx="1.2" ry="1.2"/>
      <rect class="st6" x="265" y="133" width="10.8" height="10.8" rx="1.2" ry="1.2"/>
      <rect class="st17" x="277" y="133" width="10.8" height="10.8" rx="1.2" ry="1.2"/>
      <rect class="st6" x="289" y="133" width="10.8" height="10.8" rx="1.2" ry="1.2"/>
      <rect class="st18" x="301" y="133" width="10.8" height="10.8" rx="1.2" ry="1.2"/>
      <rect class="st6" x="313" y="133" width="10.8" height="10.8" rx="1.2" ry="1.2"/>
      <rect class="st8" x="25" y="145" width="10.8" height="10.8" rx="1.2" ry="1.2"/>
      <rect class="st9" x="37" y="145" width="10.8" height="10.8" rx="1.2" ry="1.2"/>
      <rect class="st6" x="49" y="145" width="10.8" height="10.8" rx="1.2" ry="1.2"/>
      <rect class="st6" x="61" y="145" width="10.8" height="10.8" rx="1.2" ry="1.2"/>
      <rect class="st17" x="73" y="145" width="10.8" height="10.8" rx="1.2" ry="1.2"/>
      <rect class="st15" x="85" y="145" width="10.8" height="10.8" rx="1.2" ry="1.2"/>
      <rect class="st15" x="97" y="145" width="10.8" height="10.8" rx="1.2" ry="1.2"/>
      <rect class="st6" x="109" y="145" width="10.8" height="10.8" rx="1.2" ry="1.2"/>
      <rect class="st6" x="121" y="145" width="10.8" height="10.8" rx="1.2" ry="1.2"/>
      <rect class="st14" x="133" y="145" width="10.8" height="10.8" rx="1.2" ry="1.2"/>
      <rect class="st6" x="145" y="145" width="10.8" height="10.8" rx="1.2" ry="1.2"/>
      <rect class="st14" x="157" y="145" width="10.8" height="10.8" rx="1.2" ry="1.2"/>
      <rect class="st9" x="169" y="145" width="10.8" height="10.8" rx="1.2" ry="1.2"/>
      <rect class="st6" x="181" y="145" width="10.8" height="10.8" rx="1.2" ry="1.2"/>
      <rect class="st8" x="193" y="145" width="10.8" height="10.8" rx="1.2" ry="1.2"/>
      <rect class="st9" x="205" y="145" width="10.8" height="10.8" rx="1.2" ry="1.2"/>
      <rect class="st14" x="217" y="145" width="10.8" height="10.8" rx="1.2" ry="1.2"/>
      <rect class="st13" x="229" y="145" width="10.8" height="10.8" rx="1.2" ry="1.2"/>
      <rect class="st9" x="241" y="145" width="10.8" height="10.8" rx="1.2" ry="1.2"/>
      <rect class="st6" x="253" y="145" width="10.8" height="10.8" rx="1.2" ry="1.2"/>
      <rect class="st6" x="265" y="145" width="10.8" height="10.8" rx="1.2" ry="1.2"/>
      <rect class="st6" x="277" y="145" width="10.8" height="10.8" rx="1.2" ry="1.2"/>
      <rect class="st17" x="289" y="145" width="10.8" height="10.8" rx="1.2" ry="1.2"/>
      <rect class="st6" x="301" y="145" width="10.8" height="10.8" rx="1.2" ry="1.2"/>
      <rect class="st14" x="313" y="145" width="10.8" height="10.8" rx="1.2" ry="1.2"/>
      <rect class="st6" x="25" y="157" width="10.8" height="10.8" rx="1.2" ry="1.2"/>
      <rect class="st5" x="37" y="157" width="10.8" height="10.8" rx="1.2" ry="1.2"/>
      <rect class="st6" x="49" y="157" width="10.8" height="10.8" rx="1.2" ry="1.2"/>
      <rect class="st6" x="61" y="157" width="10.8" height="10.8" rx="1.2" ry="1.2"/>
      <rect class="st6" x="73" y="157" width="10.8" height="10.8" rx="1.2" ry="1.2"/>
      <rect class="st6" x="85" y="157" width="10.8" height="10.8" rx="1.2" ry="1.2"/>
      <rect class="st6" x="97" y="157" width="10.8" height="10.8" rx="1.2" ry="1.2"/>
      <rect class="st6" x="109" y="157" width="10.8" height="10.8" rx="1.2" ry="1.2"/>
      <rect class="st6" x="121" y="157" width="10.8" height="10.8" rx="1.2" ry="1.2"/>
      <rect class="st9" x="133" y="157" width="10.8" height="10.8" rx="1.2" ry="1.2"/>
      <rect class="st6" x="145" y="157" width="10.8" height="10.8" rx="1.2" ry="1.2"/>
      <rect class="st6" x="157" y="157" width="10.8" height="10.8" rx="1.2" ry="1.2"/>
      <rect class="st5" x="169" y="157" width="10.8" height="10.8" rx="1.2" ry="1.2"/>
      <rect class="st7" x="181" y="157" width="10.8" height="10.8" rx="1.2" ry="1.2"/>
      <rect class="st9" x="193" y="157" width="10.8" height="10.8" rx="1.2" ry="1.2"/>
      <rect class="st13" x="205" y="157" width="10.8" height="10.8" rx="1.2" ry="1.2"/>
      <rect class="st16" x="217" y="157" width="10.8" height="10.8" rx="1.2" ry="1.2"/>
      <rect class="st6" x="229" y="157" width="10.8" height="10.8" rx="1.2" ry="1.2"/>
      <rect class="st15" x="241" y="157" width="10.8" height="10.8" rx="1.2" ry="1.2"/>
      <rect class="st6" x="253" y="157" width="10.8" height="10.8" rx="1.2" ry="1.2"/>
      <rect class="st6" x="265" y="157" width="10.8" height="10.8" rx="1.2" ry="1.2"/>
      <rect class="st9" x="277" y="157" width="10.8" height="10.8" rx="1.2" ry="1.2"/>
      <rect class="st9" x="289" y="157" width="10.8" height="10.8" rx="1.2" ry="1.2"/>
      <rect class="st6" x="301" y="157" width="10.8" height="10.8" rx="1.2" ry="1.2"/>
      <rect class="st6" x="313" y="157" width="10.8" height="10.8" rx="1.2" ry="1.2"/>
      <rect class="st9" x="13" y="169" width="10.8" height="10.8" rx="1.2" ry="1.2"/>
      <rect class="st14" x="25" y="169" width="10.8" height="10.8" rx="1.2" ry="1.2"/>
      <rect class="st6" x="37" y="169" width="10.8" height="10.8" rx="1.2" ry="1.2"/>
      <rect class="st17" x="49" y="169" width="10.8" height="10.8" rx="1.2" ry="1.2"/>
      <rect class="st6" x="61" y="169" width="10.8" height="10.8" rx="1.2" ry="1.2"/>
      <rect class="st6" x="73" y="169" width="10.8" height="10.8" rx="1.2" ry="1.2"/>
      <rect class="st6" x="85" y="169" width="10.8" height="10.8" rx="1.2" ry="1.2"/>
      <rect class="st15" x="97" y="169" width="10.8" height="10.8" rx="1.2" ry="1.2"/>
      <rect class="st9" x="109" y="169" width="10.8" height="10.8" rx="1.2" ry="1.2"/>
      <rect class="st17" x="121" y="169" width="10.8" height="10.8" rx="1.2" ry="1.2"/>
      <rect class="st6" x="133" y="169" width="10.8" height="10.8" rx="1.2" ry="1.2"/>
      <rect class="st17" x="145" y="169" width="10.8" height="10.8" rx="1.2" ry="1.2"/>
      <rect class="st8" x="157" y="169" width="10.8" height="10.8" rx="1.2" ry="1.2"/>
      <rect class="st17" x="169" y="169" width="10.8" height="10.8" rx="1.2" ry="1.2"/>
      <rect class="st8" x="181" y="169" width="10.8" height="10.8" rx="1.2" ry="1.2"/>
      <rect class="st9" x="193" y="169" width="10.8" height="10.8" rx="1.2" ry="1.2"/>
      <rect class="st7" x="205" y="169" width="10.8" height="10.8" rx="1.2" ry="1.2"/>
      <rect class="st9" x="217" y="169" width="10.8" height="10.8" rx="1.2" ry="1.2"/>
      <rect class="st17" x="229" y="169" width="10.8" height="10.8" rx="1.2" ry="1.2"/>
      <rect class="st16" x="241" y="169" width="10.8" height="10.8" rx="1.2" ry="1.2"/>
      <rect class="st18" x="253" y="169" width="10.8" height="10.8" rx="1.2" ry="1.2"/>
      <rect class="st6" x="265" y="169" width="10.8" height="10.8" rx="1.2" ry="1.2"/>
      <rect class="st8" x="277" y="169" width="10.8" height="10.8" rx="1.2" ry="1.2"/>
      <rect class="st9" x="289" y="169" width="10.8" height="10.8" rx="1.2" ry="1.2"/>
      <rect class="st8" x="301" y="169" width="10.8" height="10.8" rx="1.2" ry="1.2"/>
      <rect class="st18" x="313" y="169" width="10.8" height="10.8" rx="1.2" ry="1.2"/>
      <rect class="st6" x="325" y="169" width="10.8" height="10.8" rx="1.2" ry="1.2"/>
      <rect class="st17" x="25" y="181" width="10.8" height="10.8" rx="1.2" ry="1.2"/>
      <rect class="st5" x="37" y="181" width="10.8" height="10.8" rx="1.2" ry="1.2"/>
      <rect class="st6" x="49" y="181" width="10.8" height="10.8" rx="1.2" ry="1.2"/>
      <rect class="st6" x="61" y="181" width="10.8" height="10.8" rx="1.2" ry="1.2"/>
      <rect class="st6" x="73" y="181" width="10.8" height="10.8" rx="1.2" ry="1.2"/>
      <rect class="st6" x="85" y="181" width="10.8" height="10.8" rx="1.2" ry="1.2"/>
      <rect class="st6" x="97" y="181" width="10.8" height="10.8" rx="1.2" ry="1.2"/>
      <rect class="st6" x="109" y="181" width="10.8" height="10.8" rx="1.2" ry="1.2"/>
      <rect class="st17" x="121" y="181" width="10.8" height="10.8" rx="1.2" ry="1.2"/>
      <rect class="st8" x="133" y="181" width="10.8" height="10.8" rx="1.2" ry="1.2"/>
      <rect class="st6" x="145" y="181" width="10.8" height="10.8" rx="1.2" ry="1.2"/>
      <rect class="st6" x="157" y="181" width="10.8" height="10.8" rx="1.2" ry="1.2"/>
      <rect class="st17" x="169" y="181" width="10.8" height="10.8" rx="1.2" ry="1.2"/>
      <rect class="st17" x="181" y="181" width="10.8" height="10.8" rx="1.2" ry="1.2"/>
      <rect class="st14" x="193" y="181" width="10.8" height="10.8" rx="1.2" ry="1.2"/>
      <rect class="st7" x="205" y="181" width="10.8" height="10.8" rx="1.2" ry="1.2"/>
      <rect class="st13" x="217" y="181" width="10.8" height="10.8" rx="1.2" ry="1.2"/>
      <rect class="st8" x="229" y="181" width="10.8" height="10.8" rx="1.2" ry="1.2"/>
      <rect class="st18" x="241" y="181" width="10.8" height="10.8" rx="1.2" ry="1.2"/>
      <rect class="st5" x="253" y="181" width="10.8" height="10.8" rx="1.2" ry="1.2"/>
      <rect class="st16" x="265" y="181" width="10.8" height="10.8" rx="1.2" ry="1.2"/>
      <rect class="st6" x="277" y="181" width="10.8" height="10.8" rx="1.2" ry="1.2"/>
      <rect class="st9" x="289" y="181" width="10.8" height="10.8" rx="1.2" ry="1.2"/>
      <rect class="st6" x="301" y="181" width="10.8" height="10.8" rx="1.2" ry="1.2"/>
      <rect class="st6" x="313" y="181" width="10.8" height="10.8" rx="1.2" ry="1.2"/>
      <rect class="st6" x="25" y="193" width="10.8" height="10.8" rx="1.2" ry="1.2"/>
      <rect class="st6" x="37" y="193" width="10.8" height="10.8" rx="1.2" ry="1.2"/>
      <rect class="st8" x="49" y="193" width="10.8" height="10.8" rx="1.2" ry="1.2"/>
      <rect class="st14" x="61" y="193" width="10.8" height="10.8" rx="1.2" ry="1.2"/>
      <rect class="st7" x="73" y="193" width="10.8" height="10.8" rx="1.2" ry="1.2"/>
      <rect class="st6" x="85" y="193" width="10.8" height="10.8" rx="1.2" ry="1.2"/>
      <rect class="st8" x="97" y="193" width="10.8" height="10.8" rx="1.2" ry="1.2"/>
      <rect class="st5" x="109" y="193" width="10.8" height="10.8" rx="1.2" ry="1.2"/>
      <rect class="st6" x="121" y="193" width="10.8" height="10.8" rx="1.2" ry="1.2"/>
      <rect class="st6" x="133" y="193" width="10.8" height="10.8" rx="1.2" ry="1.2"/>
      <rect class="st6" x="145" y="193" width="10.8" height="10.8" rx="1.2" ry="1.2"/>
      <rect class="st6" x="157" y="193" width="10.8" height="10.8" rx="1.2" ry="1.2"/>
      <rect class="st7" x="169" y="193" width="10.8" height="10.8" rx="1.2" ry="1.2"/>
      <rect class="st17" x="181" y="193" width="10.8" height="10.8" rx="1.2" ry="1.2"/>
      <rect class="st9" x="193" y="193" width="10.8" height="10.8" rx="1.2" ry="1.2"/>
      <rect class="st16" x="205" y="193" width="10.8" height="10.8" rx="1.2" ry="1.2"/>
      <rect class="st18" x="217" y="193" width="10.8" height="10.8" rx="1.2" ry="1.2"/>
      <rect class="st13" x="229" y="193" width="10.8" height="10.8" rx="1.2" ry="1.2"/>
      <rect class="st16" x="241" y="193" width="10.8" height="10.8" rx="1.2" ry="1.2"/>
      <rect class="st5" x="253" y="193" width="10.8" height="10.8" rx="1.2" ry="1.2"/>
      <rect class="st8" x="265" y="193" width="10.8" height="10.8" rx="1.2" ry="1.2"/>
      <rect class="st6" x="277" y="193" width="10.8" height="10.8" rx="1.2" ry="1.2"/>
      <rect class="st5" x="289" y="193" width="10.8" height="10.8" rx="1.2" ry="1.2"/>
      <rect class="st17" x="301" y="193" width="10.8" height="10.8" rx="1.2" ry="1.2"/>
      <rect class="st8" x="313" y="193" width="10.8" height="10.8" rx="1.2" ry="1.2"/>
      <rect class="st9" x="25" y="205" width="10.8" height="10.8" rx="1.2" ry="1.2"/>
      <rect class="st15" x="37" y="205" width="10.8" height="10.8" rx="1.2" ry="1.2"/>
      <rect class="st7" x="49" y="205" width="10.8" height="10.8" rx="1.2" ry="1.2"/>
      <rect class="st14" x="61" y="205" width="10.8" height="10.8" rx="1.2" ry="1.2"/>
      <rect class="st14" x="73" y="205" width="10.8" height="10.8" rx="1.2" ry="1.2"/>
      <rect class="st17" x="85" y="205" width="10.8" height="10.8" rx="1.2" ry="1.2"/>
      <rect class="st9" x="97" y="205" width="10.8" height="10.8" rx="1.2" ry="1.2"/>
      <rect class="st17" x="109" y="205" width="10.8" height="10.8" rx="1.2" ry="1.2"/>
      <rect class="st6" x="121" y="205" width="10.8" height="10.8" rx="1.2" ry="1.2"/>
      <rect class="st6" x="133" y="205" width="10.8" height="10.8" rx="1.2" ry="1.2"/>
      <rect class="st6" x="145" y="205" width="10.8" height="10.8" rx="1.2" ry="1.2"/>
      <rect class="st18" x="157" y="205" width="10.8" height="10.8" rx="1.2" ry="1.2"/>
      <rect class="st5" x="169" y="205" width="10.8" height="10.8" rx="1.2" ry="1.2"/>
      <rect class="st7" x="181" y="205" width="10.8" height="10.8" rx="1.2" ry="1.2"/>
      <rect class="st16" x="193" y="205" width="10.8" height="10.8" rx="1.2" ry="1.2"/>
      <rect class="st7" x="205" y="205" width="10.8" height="10.8" rx="1.2" ry="1.2"/>
      <rect class="st15" x="217" y="205" width="10.8" height="10.8" rx="1.2" ry="1.2"/>
      <rect class="st13" x="229" y="205" width="10.8" height="10.8" rx="1.2" ry="1.2"/>
      <rect class="st13" x="241" y="205" width="10.8" height="10.8" rx="1.2" ry="1.2"/>
      <rect class="st16" x="253" y="205" width="10.8" height="10.8" rx="1.2" ry="1.2"/>
      <rect class="st18" x="265" y="205" width="10.8" height="10.8" rx="1.2" ry="1.2"/>
      <rect class="st8" x="277" y="205" width="10.8" height="10.8" rx="1.2" ry="1.2"/>
      <rect class="st6" x="289" y="205" width="10.8" height="10.8" rx="1.2" ry="1.2"/>
      <rect class="st17" x="301" y="205" width="10.8" height="10.8" rx="1.2" ry="1.2"/>
      <rect class="st17" x="313" y="205" width="10.8" height="10.8" rx="1.2" ry="1.2"/>
      <rect class="st17" x="25" y="217" width="10.8" height="10.8" rx="1.2" ry="1.2"/>
      <rect class="st14" x="37" y="217" width="10.8" height="10.8" rx="1.2" ry="1.2"/>
      <rect class="st9" x="49" y="217" width="10.8" height="10.8" rx="1.2" ry="1.2"/>
      <rect class="st17" x="61" y="217" width="10.8" height="10.8" rx="1.2" ry="1.2"/>
      <rect class="st7" x="73" y="217" width="10.8" height="10.8" rx="1.2" ry="1.2"/>
      <rect class="st5" x="85" y="217" width="10.8" height="10.8" rx="1.2" ry="1.2"/>
      <rect class="st6" x="97" y="217" width="10.8" height="10.8" rx="1.2" ry="1.2"/>
      <rect class="st6" x="109" y="217" width="10.8" height="10.8" rx="1.2" ry="1.2"/>
      <rect class="st6" x="121" y="217" width="10.8" height="10.8" rx="1.2" ry="1.2"/>
      <rect class="st5" x="133" y="217" width="10.8" height="10.8" rx="1.2" ry="1.2"/>
      <rect class="st8" x="145" y="217" width="10.8" height="10.8" rx="1.2" ry="1.2"/>
      <rect class="st6" x="157" y="217" width="10.8" height="10.8" rx="1.2" ry="1.2"/>
      <rect class="st6" x="169" y="217" width="10.8" height="10.8" rx="1.2" ry="1.2"/>
      <rect class="st18" x="181" y="217" width="10.8" height="10.8" rx="1.2" ry="1.2"/>
      <rect class="st6" x="193" y="217" width="10.8" height="10.8" rx="1.2" ry="1.2"/>
      <rect class="st16" x="205" y="217" width="10.8" height="10.8" rx="1.2" ry="1.2"/>
      <rect class="st7" x="217" y="217" width="10.8" height="10.8" rx="1.2" ry="1.2"/>
      <rect class="st5" x="229" y="217" width="10.8" height="10.8" rx="1.2" ry="1.2"/>
      <rect class="st9" x="241" y="217" width="10.8" height="10.8" rx="1.2" ry="1.2"/>
      <rect class="st6" x="253" y="217" width="10.8" height="10.8" rx="1.2" ry="1.2"/>
      <rect class="st6" x="265" y="217" width="10.8" height="10.8" rx="1.2" ry="1.2"/>
      <rect class="st17" x="277" y="217" width="10.8" height="10.8" rx="1.2" ry="1.2"/>
      <rect class="st9" x="289" y="217" width="10.8" height="10.8" rx="1.2" ry="1.2"/>
      <rect class="st9" x="301" y="217" width="10.8" height="10.8" rx="1.2" ry="1.2"/>
      <rect class="st8" x="313" y="217" width="10.8" height="10.8" rx="1.2" ry="1.2"/>
      <rect class="st6" x="25" y="229" width="10.8" height="10.8" rx="1.2" ry="1.2"/>
      <rect class="st17" x="37" y="229" width="10.8" height="10.8" rx="1.2" ry="1.2"/>
      <rect class="st14" x="49" y="229" width="10.8" height="10.8" rx="1.2" ry="1.2"/>
      <rect class="st6" x="61" y="229" width="10.8" height="10.8" rx="1.2" ry="1.2"/>
      <rect class="st9" x="73" y="229" width="10.8" height="10.8" rx="1.2" ry="1.2"/>
      <rect class="st6" x="85" y="229" width="10.8" height="10.8" rx="1.2" ry="1.2"/>
      <rect class="st15" x="97" y="229" width="10.8" height="10.8" rx="1.2" ry="1.2"/>
      <rect class="st5" x="109" y="229" width="10.8" height="10.8" rx="1.2" ry="1.2"/>
      <rect class="st6" x="121" y="229" width="10.8" height="10.8" rx="1.2" ry="1.2"/>
      <rect class="st6" x="133" y="229" width="10.8" height="10.8" rx="1.2" ry="1.2"/>
      <rect class="st6" x="145" y="229" width="10.8" height="10.8" rx="1.2" ry="1.2"/>
      <rect class="st8" x="157" y="229" width="10.8" height="10.8" rx="1.2" ry="1.2"/>
      <rect class="st6" x="169" y="229" width="10.8" height="10.8" rx="1.2" ry="1.2"/>
      <rect class="st9" x="181" y="229" width="10.8" height="10.8" rx="1.2" ry="1.2"/>
      <rect class="st15" x="193" y="229" width="10.8" height="10.8" rx="1.2" ry="1.2"/>
      <rect class="st17" x="205" y="229" width="10.8" height="10.8" rx="1.2" ry="1.2"/>
      <rect class="st6" x="217" y="229" width="10.8" height="10.8" rx="1.2" ry="1.2"/>
      <rect class="st16" x="229" y="229" width="10.8" height="10.8" rx="1.2" ry="1.2"/>
      <rect class="st14" x="241" y="229" width="10.8" height="10.8" rx="1.2" ry="1.2"/>
      <rect class="st17" x="253" y="229" width="10.8" height="10.8" rx="1.2" ry="1.2"/>
      <rect class="st6" x="265" y="229" width="10.8" height="10.8" rx="1.2" ry="1.2"/>
      <rect class="st6" x="277" y="229" width="10.8" height="10.8" rx="1.2" ry="1.2"/>
      <rect class="st9" x="289" y="229" width="10.8" height="10.8" rx="1.2" ry="1.2"/>
      <rect class="st14" x="301" y="229" width="10.8" height="10.8" rx="1.2" ry="1.2"/>
      <rect class="st5" x="313" y="229" width="10.8" height="10.8" rx="1.2" ry="1.2"/>
      <rect class="st6" x="37" y="241" width="10.8" height="10.8" rx="1.2" ry="1.2"/>
      <rect class="st5" x="49" y="241" width="10.8" height="10.8" rx="1.2" ry="1.2"/>
      <rect class="st14" x="61" y="241" width="10.8" height="10.8" rx="1.2" ry="1.2"/>
      <rect class="st6" x="73" y="241" width="10.8" height="10.8" rx="1.2" ry="1.2"/>
      <rect class="st17" x="85" y="241" width="10.8" height="10.8" rx="1.2" ry="1.2"/>
      <rect class="st18" x="97" y="241" width="10.8" height="10.8" rx="1.2" ry="1.2"/>
      <rect class="st6" x="109" y="241" width="10.8" height="10.8" rx="1.2" ry="1.2"/>
      <rect class="st7" x="121" y="241" width="10.8" height="10.8" rx="1.2" ry="1.2"/>
      <rect class="st18" x="133" y="241" width="10.8" height="10.8" rx="1.2" ry="1.2"/>
      <rect class="st6" x="145" y="241" width="10.8" height="10.8" rx="1.2" ry="1.2"/>
      <rect class="st6" x="157" y="241" width="10.8" height="10.8" rx="1.2" ry="1.2"/>
      <rect class="st17" x="169" y="241" width="10.8" height="10.8" rx="1.2" ry="1.2"/>
      <rect class="st6" x="181" y="241" width="10.8" height="10.8" rx="1.2" ry="1.2"/>
      <rect class="st14" x="193" y="241" width="10.8" height="10.8" rx="1.2" ry="1.2"/>
      <rect class="st18" x="205" y="241" width="10.8" height="10.8" rx="1.2" ry="1.2"/>
      <rect class="st8" x="217" y="241" width="10.8" height="10.8" rx="1.2" ry="1.2"/>
      <rect class="st14" x="229" y="241" width="10.8" height="10.8" rx="1.2" ry="1.2"/>
      <rect class="st14" x="241" y="241" width="10.8" height="10.8" rx="1.2" ry="1.2"/>
      <rect class="st17" x="253" y="241" width="10.8" height="10.8" rx="1.2" ry="1.2"/>
      <rect class="st6" x="265" y="241" width="10.8" height="10.8" rx="1.2" ry="1.2"/>
      <rect class="st6" x="277" y="241" width="10.8" height="10.8" rx="1.2" ry="1.2"/>
      <rect class="st6" x="289" y="241" width="10.8" height="10.8" rx="1.2" ry="1.2"/>
      <rect class="st7" x="301" y="241" width="10.8" height="10.8" rx="1.2" ry="1.2"/>
      <rect class="st5" x="49" y="253" width="10.8" height="10.8" rx="1.2" ry="1.2"/>
      <rect class="st13" x="61" y="253" width="10.8" height="10.8" rx="1.2" ry="1.2"/>
      <rect class="st17" x="73" y="253" width="10.8" height="10.8" rx="1.2" ry="1.2"/>
      <rect class="st7" x="85" y="253" width="10.8" height="10.8" rx="1.2" ry="1.2"/>
      <rect class="st15" x="97" y="253" width="10.8" height="10.8" rx="1.2" ry="1.2"/>
      <rect class="st16" x="109" y="253" width="10.8" height="10.8" rx="1.2" ry="1.2"/>
      <rect class="st5" x="121" y="253" width="10.8" height="10.8" rx="1.2" ry="1.2"/>
      <rect class="st5" x="133" y="253" width="10.8" height="10.8" rx="1.2" ry="1.2"/>
      <rect class="st9" x="145" y="253" width="10.8" height="10.8" rx="1.2" ry="1.2"/>
      <rect class="st6" x="157" y="253" width="10.8" height="10.8" rx="1.2" ry="1.2"/>
      <rect class="st17" x="169" y="253" width="10.8" height="10.8" rx="1.2" ry="1.2"/>
      <rect class="st6" x="181" y="253" width="10.8" height="10.8" rx="1.2" ry="1.2"/>
      <rect class="st9" x="193" y="253" width="10.8" height="10.8" rx="1.2" ry="1.2"/>
      <rect class="st6" x="205" y="253" width="10.8" height="10.8" rx="1.2" ry="1.2"/>
      <rect class="st8" x="217" y="253" width="10.8" height="10.8" rx="1.2" ry="1.2"/>
      <rect class="st6" x="229" y="253" width="10.8" height="10.8" rx="1.2" ry="1.2"/>
      <rect class="st6" x="241" y="253" width="10.8" height="10.8" rx="1.2" ry="1.2"/>
      <rect class="st6" x="253" y="253" width="10.8" height="10.8" rx="1.2" ry="1.2"/>
      <rect class="st18" x="265" y="253" width="10.8" height="10.8" rx="1.2" ry="1.2"/>
      <rect class="st6" x="277" y="253" width="10.8" height="10.8" rx="1.2" ry="1.2"/>
      <rect class="st14" x="289" y="253" width="10.8" height="10.8" rx="1.2" ry="1.2"/>
      <rect class="st8" x="49" y="265" width="10.8" height="10.8" rx="1.2" ry="1.2"/>
      <rect class="st13" x="61" y="265" width="10.8" height="10.8" rx="1.2" ry="1.2"/>
      <rect class="st13" x="73" y="265" width="10.8" height="10.8" rx="1.2" ry="1.2"/>
      <rect class="st14" x="85" y="265" width="10.8" height="10.8" rx="1.2" ry="1.2"/>
      <rect class="st13" x="97" y="265" width="10.8" height="10.8" rx="1.2" ry="1.2"/>
      <rect class="st13" x="109" y="265" width="10.8" height="10.8" rx="1.2" ry="1.2"/>
      <rect class="st9" x="121" y="265" width="10.8" height="10.8" rx="1.2" ry="1.2"/>
      <rect class="st6" x="133" y="265" width="10.8" height="10.8" rx="1.2" ry="1.2"/>
      <rect class="st6" x="145" y="265" width="10.8" height="10.8" rx="1.2" ry="1.2"/>
      <rect class="st6" x="157" y="265" width="10.8" height="10.8" rx="1.2" ry="1.2"/>
      <rect class="st6" x="169" y="265" width="10.8" height="10.8" rx="1.2" ry="1.2"/>
      <rect class="st5" x="181" y="265" width="10.8" height="10.8" rx="1.2" ry="1.2"/>
      <rect class="st6" x="193" y="265" width="10.8" height="10.8" rx="1.2" ry="1.2"/>
      <rect class="st8" x="205" y="265" width="10.8" height="10.8" rx="1.2" ry="1.2"/>
      <rect class="st6" x="217" y="265" width="10.8" height="10.8" rx="1.2" ry="1.2"/>
      <rect class="st9" x="229" y="265" width="10.8" height="10.8" rx="1.2" ry="1.2"/>
      <rect class="st6" x="241" y="265" width="10.8" height="10.8" rx="1.2" ry="1.2"/>
      <rect class="st15" x="253" y="265" width="10.8" height="10.8" rx="1.2" ry="1.2"/>
      <rect class="st7" x="265" y="265" width="10.8" height="10.8" rx="1.2" ry="1.2"/>
      <rect class="st6" x="277" y="265" width="10.8" height="10.8" rx="1.2" ry="1.2"/>
      <rect class="st17" x="289" y="265" width="10.8" height="10.8" rx="1.2" ry="1.2"/>
      <rect class="st6" x="61" y="277" width="10.8" height="10.8" rx="1.2" ry="1.2"/>
      <rect class="st14" x="73" y="277" width="10.8" height="10.8" rx="1.2" ry="1.2"/>
      <rect class="st13" x="85" y="277" width="10.8" height="10.8" rx="1.2" ry="1.2"/>
      <rect class="st9" x="97" y="277" width="10.8" height="10.8" rx="1.2" ry="1.2"/>
      <rect class="st16" x="109" y="277" width="10.8" height="10.8" rx="1.2" ry="1.2"/>
      <rect class="st13" x="121" y="277" width="10.8" height="10.8" rx="1.2" ry="1.2"/>
      <rect class="st8" x="133" y="277" width="10.8" height="10.8" rx="1.2" ry="1.2"/>
      <rect class="st9" x="145" y="277" width="10.8" height="10.8" rx="1.2" ry="1.2"/>
      <rect class="st18" x="157" y="277" width="10.8" height="10.8" rx="1.2" ry="1.2"/>
      <rect class="st18" x="169" y="277" width="10.8" height="10.8" rx="1.2" ry="1.2"/>
      <rect class="st6" x="181" y="277" width="10.8" height="10.8" rx="1.2" ry="1.2"/>
      <rect class="st6" x="193" y="277" width="10.8" height="10.8" rx="1.2" ry="1.2"/>
      <rect class="st8" x="205" y="277" width="10.8" height="10.8" rx="1.2" ry="1.2"/>
      <rect class="st6" x="217" y="277" width="10.8" height="10.8" rx="1.2" ry="1.2"/>
      <rect class="st6" x="229" y="277" width="10.8" height="10.8" rx="1.2" ry="1.2"/>
      <rect class="st6" x="241" y="277" width="10.8" height="10.8" rx="1.2" ry="1.2"/>
      <rect class="st9" x="253" y="277" width="10.8" height="10.8" rx="1.2" ry="1.2"/>
      <rect class="st16" x="265" y="277" width="10.8" height="10.8" rx="1.2" ry="1.2"/>
      <rect class="st13" x="277" y="277" width="10.8" height="10.8" rx="1.2" ry="1.2"/>
      <rect class="st17" x="73" y="289" width="10.8" height="10.8" rx="1.2" ry="1.2"/>
      <rect class="st15" x="85" y="289" width="10.8" height="10.8" rx="1.2" ry="1.2"/>
      <rect class="st13" x="97" y="289" width="10.8" height="10.8" rx="1.2" ry="1.2"/>
      <rect class="st14" x="109" y="289" width="10.8" height="10.8" rx="1.2" ry="1.2"/>
      <rect class="st17" x="121" y="289" width="10.8" height="10.8" rx="1.2" ry="1.2"/>
      <rect class="st15" x="133" y="289" width="10.8" height="10.8" rx="1.2" ry="1.2"/>
      <rect class="st6" x="145" y="289" width="10.8" height="10.8" rx="1.2" ry="1.2"/>
      <rect class="st5" x="157" y="289" width="10.8" height="10.8" rx="1.2" ry="1.2"/>
      <rect class="st8" x="169" y="289" width="10.8" height="10.8" rx="1.2" ry="1.2"/>
      <rect class="st14" x="181" y="289" width="10.8" height="10.8" rx="1.2" ry="1.2"/>
      <rect class="st14" x="193" y="289" width="10.8" height="10.8" rx="1.2" ry="1.2"/>
      <rect class="st18" x="205" y="289" width="10.8" height="10.8" rx="1.2" ry="1.2"/>
      <rect class="st6" x="217" y="289" width="10.8" height="10.8" rx="1.2" ry="1.2"/>
      <rect class="st5" x="229" y="289" width="10.8" height="10.8" rx="1.2" ry="1.2"/>
      <rect class="st6" x="241" y="289" width="10.8" height="10.8" rx="1.2" ry="1.2"/>
      <rect class="st8" x="253" y="289" width="10.8" height="10.8" rx="1.2" ry="1.2"/>
      <rect class="st13" x="265" y="289" width="10.8" height="10.8" rx="1.2" ry="1.2"/>
      <rect class="st7" x="97" y="301" width="10.8" height="10.8" rx="1.2" ry="1.2"/>
      <rect class="st9" x="109" y="301" width="10.8" height="10.8" rx="1.2" ry="1.2"/>
      <rect class="st9" x="121" y="301" width="10.8" height="10.8" rx="1.2" ry="1.2"/>
      <rect class="st13" x="133" y="301" width="10.8" height="10.8" rx="1.2" ry="1.2"/>
      <rect class="st13" x="145" y="301" width="10.8" height="10.8" rx="1.2" ry="1.2"/>
      <rect class="st17" x="157" y="301" width="10.8" height="10.8" rx="1.2" ry="1.2"/>
      <rect class="st17" x="169" y="301" width="10.8" height="10.8" rx="1.2" ry="1.2"/>
      <rect class="st6" x="181" y="301" width="10.8" height="10.8" rx="1.2" ry="1.2"/>
      <rect class="st6" x="193" y="301" width="10.8" height="10.8" rx="1.2" ry="1.2"/>
      <rect class="st9" x="205" y="301" width="10.8" height="10.8" rx="1.2" ry="1.2"/>
      <rect class="st8" x="217" y="301" width="10.8" height="10.8" rx="1.2" ry="1.2"/>
      <rect class="st7" x="229" y="301" width="10.8" height="10.8" rx="1.2" ry="1.2"/>
      <rect class="st16" x="241" y="301" width="10.8" height="10.8" rx="1.2" ry="1.2"/>
      <rect class="st14" x="109" y="313" width="10.8" height="10.8" rx="1.2" ry="1.2"/>
      <rect class="st7" x="121" y="313" width="10.8" height="10.8" rx="1.2" ry="1.2"/>
      <rect class="st13" x="133" y="313" width="10.8" height="10.8" rx="1.2" ry="1.2"/>
      <rect class="st14" x="145" y="313" width="10.8" height="10.8" rx="1.2" ry="1.2"/>
      <rect class="st16" x="157" y="313" width="10.8" height="10.8" rx="1.2" ry="1.2"/>
      <rect class="st8" x="169" y="313" width="10.8" height="10.8" rx="1.2" ry="1.2"/>
      <rect class="st18" x="181" y="313" width="10.8" height="10.8" rx="1.2" ry="1.2"/>
      <rect class="st8" x="193" y="313" width="10.8" height="10.8" rx="1.2" ry="1.2"/>
      <rect class="st14" x="205" y="313" width="10.8" height="10.8" rx="1.2" ry="1.2"/>
      <rect class="st15" x="217" y="313" width="10.8" height="10.8" rx="1.2" ry="1.2"/>
      <rect class="st13" x="229" y="313" width="10.8" height="10.8" rx="1.2" ry="1.2"/>
      <rect class="st7" x="169" y="325" width="10.8" height="10.8" rx="1.2" ry="1.2"/>
      <g>
        <ellipse class="st4" cx="175" cy="175" rx="1" ry="158"/>
        <ellipse class="st4" cx="175" cy="175" rx="55.3" ry="158"/>
        <ellipse class="st4" cx="175" cy="175" rx="110.6" ry="158"/>
        <ellipse class="st3" cx="175" cy="77" rx="124" ry="9.5"/>
        <ellipse class="st3" cx="175" cy="126" rx="150.2" ry="9.5"/>
        <ellipse class="st3" cx="175" cy="175" rx="158" ry="9.5"/>
        <ellipse class="st3" cx="175" cy="224" rx="150.2" ry="9.5"/>
        <ellipse class="st3" cx="175" cy="273" rx="124" ry="9.5"/>
      </g>
    </g>
  </g>
  <circle class="st2" cx="175" cy="175" r="160"/>
  <circle class="st1" cx="175" cy="175" r="168"/>
  <g class="st12">
    <text class="st11" transform="translate(374.03 133.57)"><tspan x="0" y="0" xml:space="preserve">The MOSAIKS Blog   </tspan></text>
  </g>
  <g class="st12">
    <text class="st10" transform="translate(404.75 241.44)"><tspan x="0" y="0">the view from the kitchen sink</tspan></text>
  </g>
</svg>